<svg id="圖層_1" data-name="圖層 1" xmlns="http://www.w3.org/2000/svg" viewBox="0 0 31.77 31.77"><defs><style>.cls-1{fill:#3e3a39;}</style></defs><title>首頁畫面</title><path class="cls-1" d="M20.6,9.93l.32-.6a.42.42,0,0,0-.73-.41l-.34.61a1.23,1.23,0,0,0-.39,0H15.63A1.68,1.68,0,0,0,14,11.16V15a1.66,1.66,0,0,0,.76,1.41l-1.32,2a1.83,1.83,0,0,0-.49-.47,1.73,1.73,0,0,0-1.17-.28,1.69,1.69,0,0,0-.6-.67,1.75,1.75,0,0,0-1.82-.07A1.59,1.59,0,0,0,9,16.66,1.74,1.74,0,0,0,6.67,17a.35.35,0,0,0-.09.11l-2.77,4.2a3.65,3.65,0,0,0,1,5.06l2.72,1.8a3.44,3.44,0,0,0,2.59.41,9.59,9.59,0,0,1,1.68-.08,10.11,10.11,0,0,1,3.53,1.15.73.73,0,0,0,.2,0l.06,0c.08,0,.79-.13,1.11-1.18.39-1.28-.76-2.44-2.08-3A6.64,6.64,0,0,0,13,25l5.47-8.29h1A1.68,1.68,0,0,0,21.14,15V11.16A1.64,1.64,0,0,0,20.6,9.93ZM14.79,15V11.16a.85.85,0,0,1,.84-.85h3.79l-1.84,3.31-1.24-1.91a.41.41,0,0,0-.57-.13.42.42,0,0,0-.14.57l1.08,1.67a1.73,1.73,0,0,0-.68.58l-.85,1.29A.83.83,0,0,1,14.79,15Zm3.23.8L11.93,25a.44.44,0,0,0,0,.37.41.41,0,0,0,.27.26,2,2,0,0,0,.47.09,5.39,5.39,0,0,1,1.71.5c.79.35,1.86,1.18,1.61,2a1,1,0,0,1-.34.54,11.07,11.07,0,0,0-3.7-1.14h-.51a10,10,0,0,0-1.33.1,2.7,2.7,0,0,1-2-.3L5.31,25.7a2.82,2.82,0,0,1-.8-3.89l2.77-4.22-.35-.24.38.2a.94.94,0,0,1,1.24-.2,1,1,0,0,1,.31.35.43.43,0,0,0,.3.22.41.41,0,0,0,.36-.12.94.94,0,0,1,1.16-.11.91.91,0,0,1,.39.56.43.43,0,0,0,.21.27.5.5,0,0,0,.34,0,.88.88,0,0,1,.83.1.9.9,0,0,1,.42.72.41.41,0,0,0,.31.37.42.42,0,0,0,.46-.17l3.09-4.7a.75.75,0,0,1,.52-.35.77.77,0,0,1,.62.15A.83.83,0,0,1,18,15.79ZM20.3,15a.84.84,0,0,1-.84.84h-.54A1.64,1.64,0,0,0,18.36,14h0l1.81-3.27a.78.78,0,0,1,.14.46Z"/><path class="cls-1" d="M16.27,7.13h2.55a1.27,1.27,0,0,0,1.26-1.27V3.31a1.26,1.26,0,0,0-1.26-1.26H16.27A1.25,1.25,0,0,0,15,3.31V5.86A1.26,1.26,0,0,0,16.27,7.13Zm-.42-3.82a.41.41,0,0,1,.42-.41h2.55a.41.41,0,0,1,.42.41V5.86a.42.42,0,0,1-.42.42H16.27a.42.42,0,0,1-.42-.42Z"/><path class="cls-1" d="M18.82,19h-.67a.42.42,0,0,0,0,.84h.67a.42.42,0,0,1,.42.42v2.56a.42.42,0,0,1-.42.41H16.27a.41.41,0,0,1-.34-.16.42.42,0,1,0-.66.51,1.25,1.25,0,0,0,1,.49h2.55a1.27,1.27,0,0,0,1.26-1.25V20.28A1.26,1.26,0,0,0,18.82,19Z"/><path class="cls-1" d="M7.79,15.61h2.55a1.27,1.27,0,0,0,1.26-1.25V11.79a1.26,1.26,0,0,0-1.26-1.25H7.79a1.25,1.25,0,0,0-1.26,1.25v2.57A1.26,1.26,0,0,0,7.79,15.61Zm-.43-3.82a.43.43,0,0,1,.43-.42h2.55a.42.42,0,0,1,.42.42v2.57a.42.42,0,0,1-.42.41H7.79a.43.43,0,0,1-.43-.41Z"/><path class="cls-1" d="M7.79,7.13h2.55A1.27,1.27,0,0,0,11.6,5.86V3.31a1.26,1.26,0,0,0-1.26-1.26H7.79A1.25,1.25,0,0,0,6.53,3.31V5.86A1.26,1.26,0,0,0,7.79,7.13ZM7.36,3.31a.42.42,0,0,1,.43-.41h2.55a.41.41,0,0,1,.42.41V5.86a.42.42,0,0,1-.42.42H7.79a.42.42,0,0,1-.43-.42Z"/><path class="cls-1" d="M27.31,10.54H24.75a1.26,1.26,0,0,0-1.26,1.25v2.57a1.27,1.27,0,0,0,1.26,1.25h2.56a1.26,1.26,0,0,0,1.25-1.25V11.79A1.25,1.25,0,0,0,27.31,10.54Zm.41,3.82a.41.41,0,0,1-.41.41H24.75a.42.42,0,0,1-.42-.41V11.79a.42.42,0,0,1,.42-.42h2.56a.41.41,0,0,1,.41.42Z"/><path class="cls-1" d="M27.31,2.05H24.75a1.26,1.26,0,0,0-1.26,1.26V5.86a1.27,1.27,0,0,0,1.26,1.27h2.56a1.26,1.26,0,0,0,1.25-1.27V3.31A1.25,1.25,0,0,0,27.31,2.05Zm.41,3.81a.41.41,0,0,1-.41.42H24.75a.42.42,0,0,1-.42-.42V3.31a.41.41,0,0,1,.42-.41h2.56a.4.4,0,0,1,.41.41Z"/><path class="cls-1" d="M27.31,19H24.75a1.26,1.26,0,0,0-1.26,1.26v2.56a1.27,1.27,0,0,0,1.26,1.25h2.56a1.26,1.26,0,0,0,1.25-1.25V20.28A1.25,1.25,0,0,0,27.31,19Zm.41,3.82a.41.41,0,0,1-.41.41H24.75a.42.42,0,0,1-.42-.41V20.28a.42.42,0,0,1,.42-.42h2.56a.41.41,0,0,1,.41.42Z"/></svg>