<svg id="圖層_1" data-name="圖層 1" xmlns="http://www.w3.org/2000/svg" viewBox="0 0 31.77 31.77"><defs><style>.cls-1{fill:#3e3a39;}</style></defs><title>首頁畫面</title><path class="cls-1" d="M19.3,29.72H12.61V25.9a10.69,10.69,0,0,1-1.36-.54L8.52,28.08,3.79,23.35l2.67-2.67a10.64,10.64,0,0,1-.64-1.52H2.05V12.47H5.87a10.41,10.41,0,0,1,.59-1.38L3.79,8.42,8.52,3.69l2.73,2.72a10,10,0,0,1,1.22-.49V2.05h6.69V5.92a10.76,10.76,0,0,1,1.32.54l2.77-2.77L28,8.42l-2.76,2.77a9.87,9.87,0,0,1,.59,1.42h3.91V19.3h-4a10.35,10.35,0,0,1-.54,1.29L28,23.35l-4.73,4.73-2.77-2.77a12.27,12.27,0,0,1-1.18.5Zm-5.79-.9h4.9V25.15l.31-.1a9.68,9.68,0,0,0,1.63-.68l.29-.16,2.61,2.6,3.46-3.46-2.6-2.6.16-.29A9.48,9.48,0,0,0,25,18.72l.09-.31h3.72v-4.9H25.14l-.1-.33a8.88,8.88,0,0,0-.77-1.87L24.12,11l2.59-2.6L23.25,5l-2.61,2.6-.29-.15a9.75,9.75,0,0,0-1.77-.74l-.32-.09V3h-4.9V6.58L13,6.67a10.13,10.13,0,0,0-1.67.69l-.29.15L8.52,5,5.06,8.42l2.51,2.51-.17.3a10.08,10.08,0,0,0-.78,1.82l-.09.31H3v4.9H6.49l.09.33a9.82,9.82,0,0,0,.82,1.95l.17.3L5.06,23.35l3.46,3.46,2.56-2.55.29.15a8.87,8.87,0,0,0,1.81.72l.33.1Zm2.3-7.08a5.86,5.86,0,1,1,5.86-5.85A5.85,5.85,0,0,1,15.81,21.74Zm0-10.81a5,5,0,1,0,5,5A5,5,0,0,0,15.81,10.93Z"/></svg>