<svg id="圖層_1" data-name="圖層 1" xmlns="http://www.w3.org/2000/svg" viewBox="0 0 31.77 31.77"><defs><style>.cls-1{fill:#3e3a39;}</style></defs><title>首頁畫面</title><path class="cls-1" d="M29,3.78H2.76a.37.37,0,0,0-.37.38V26.27a.37.37,0,0,0,.37.38H18.91a.38.38,0,0,0,.37-.38.37.37,0,0,0-.37-.36H3.13V8.24H28.64V25.91H27.9a.37.37,0,1,0,0,.74H29a.37.37,0,0,0,.37-.38V4.16A.37.37,0,0,0,29,3.78ZM3.13,7.5v-3H28.64v3Z"/><path class="cls-1" d="M26.8,5.75a.35.35,0,0,0-.11.26.4.4,0,0,0,.11.27.41.41,0,0,0,.26.11.46.46,0,0,0,.27-.11A.44.44,0,0,0,27.44,6a.39.39,0,0,0-.11-.26A.41.41,0,0,0,26.8,5.75Z"/><path class="cls-1" d="M25,5.64a.37.37,0,0,0-.37.37.38.38,0,0,0,.37.38A.37.37,0,0,0,25.39,6,.36.36,0,0,0,25,5.64Z"/><path class="cls-1" d="M22.72,5.75a.35.35,0,0,0-.11.26.39.39,0,0,0,.11.27.41.41,0,0,0,.26.11.44.44,0,0,0,.27-.11.38.38,0,0,0,.1-.27.34.34,0,0,0-.1-.26A.41.41,0,0,0,22.72,5.75Z"/><path class="cls-1" d="M21.82,21.28a.37.37,0,0,0-.52,0l-.17.18-.8-.81a6,6,0,1,0-1.73,1.73l.8.81-.17.16a.39.39,0,0,0-.11.27.35.35,0,0,0,.11.26l3.65,3.65A1.56,1.56,0,0,0,24,28a1.54,1.54,0,0,0,1.1-.46l.38-.38a1.56,1.56,0,0,0,0-2.22Zm-2.92.35a.42.42,0,0,0-.26-.1.36.36,0,0,0-.22.07,5.23,5.23,0,1,1,1.13-1.13.38.38,0,0,0,0,.49l1,1-.67.67Zm6.05,5-.39.38a.81.81,0,0,1-1.15,0L20,23.62l.17-.18h0l1.2-1.2h0l.17-.17L25,25.46A.82.82,0,0,1,25,26.62Z"/><path class="cls-1" d="M12.7,14.75a3.72,3.72,0,0,0,0,5.26A3.72,3.72,0,0,0,18,20a3.72,3.72,0,0,0-5.26-5.26Zm4.73,4.73a3,3,0,0,1-4.2-4.2,3,3,0,0,1,4.2,0A3,3,0,0,1,17.43,19.48Z"/></svg>