<svg id="圖層_1" data-name="圖層 1" xmlns="http://www.w3.org/2000/svg" viewBox="0 0 256 47.41"><defs><style>.cls-1{fill:#004a98;}.cls-2{fill:#231815;}</style></defs><title>首頁畫面</title><path class="cls-1" d="M33.2,37.44H21.88L13,0H25.19A2.37,2.37,0,0,1,27.5,1.82l7.79,33A2.15,2.15,0,0,1,33.2,37.44Z"/><path class="cls-1" d="M8.69,1.52l3.49,14.71L9,29.72h6.39l1.79,7.72H2.09a2.06,2.06,0,0,1-2-2.53L8,1.52A.37.37,0,0,1,8.69,1.52Z"/><path class="cls-1" d="M3.71,45.38H1.41L.8,47.3H0L2.13,41H3L5.14,47.3H4.3Zm-.2-.63-.3-1c-.23-.71-.43-1.39-.63-2.12h0c-.19.74-.4,1.41-.62,2.12l-.31,1Z"/><path class="cls-1" d="M6.28,41H7.1L9.39,45l.67,1.29h0c0-.63-.1-1.33-.1-2V41h.75V47.3H9.94l-2.29-4L7,42.05h0c0,.63.09,1.3.09,2V47.3H6.28Z"/><path class="cls-1" d="M14,41.7h-1.9V41h4.59v.67h-1.9v5.6H14Z"/><path class="cls-1" d="M18.07,44.71V41h.8v3.7c0,1.52.64,2,1.45,2s1.5-.47,1.5-2V41h.76v3.68c0,2-1,2.7-2.26,2.7S18.07,46.73,18.07,44.71Z"/><path class="cls-1" d="M24.52,41h.83L27.63,45l.67,1.29h0c0-.63-.1-1.33-.1-2V41H29V47.3h-.81l-2.29-4-.67-1.29h0c0,.63.1,1.3.1,2V47.3h-.76Z"/><path class="cls-1" d="M30.6,44.17c0-2,1.22-3.26,2.88-3.26a2.36,2.36,0,0,1,1.8.78l-.43.51a1.76,1.76,0,0,0-1.36-.6c-1.26,0-2.08,1-2.08,2.54s.75,2.58,2.09,2.58a1.75,1.75,0,0,0,1.14-.37V44.71H33.31v-.66h2.06v2.64a2.76,2.76,0,0,1-1.95.72C31.77,47.41,30.6,46.21,30.6,44.17Z"/><path class="cls-1" d="M66,17.88a12.18,12.18,0,0,1-1.92,3.85,42.39,42.39,0,0,1,5.72,2.82L68,26.72a42.52,42.52,0,0,0-5.82-3.08c-2.13,1.63-5,2.55-9,3.1a10.28,10.28,0,0,0-1.53-2.48,20,20,0,0,0,7.6-1.84C57.51,21.67,55.67,21,54,20.49c.54-.75,1.12-1.64,1.68-2.61h-4V15.56H57a25.73,25.73,0,0,0,1.37-3.21l2.88.54c-.33.85-.73,1.76-1.16,2.67h3.64c.11-.58.17-1.22.23-1.89l3,.19v-2H54.57v2.32H52.06V9.57h7.36c-.23-.6-.5-1.24-.73-1.8l2.78-.64c.35.74.78,1.68,1.07,2.44h7v4.6H66.91c-.08.48-.16.93-.24,1.39h3.25v2.32Zm-7.18,0c-.31.54-.6,1-.91,1.53,1.16.37,2.34.81,3.56,1.27a8.72,8.72,0,0,0,1.57-2.8Z"/><path class="cls-1" d="M86.11,24c1.68.45,3.34.95,4.44,1.32L88.43,26.7a51.91,51.91,0,0,0-6.06-2l.89-.76H79.51l1,.74a26.35,26.35,0,0,1-6.89,2A16.07,16.07,0,0,0,72.17,25a30.59,30.59,0,0,0,5-1.08H74.89V17.09H88.48V24ZM73.79,11.71H72.57V8.52h7.54c-.11-.31-.23-.6-.35-.87l2.48-.54a10.74,10.74,0,0,1,.64,1.41h7.48v3.19H88.72v.78H86.45v.58H90V14.3H86.45v1h1.13v-.85h1.81v2.07H81.62V14.48h1.7v.85h1.1v-1H81V13.07h.68a6.82,6.82,0,0,0-.91-.56,5.9,5.9,0,0,0,1.7-2.09H74.78v.71h5.91v1.38h-2.3v.63h2.13v1.22H78.39v.58l2.48-.13,0,1.54c-2.77.18-5.63.35-7.72.45L73,15.19l3.4-.15v-.68H74.08V13.14h2.28v-.63H73.79ZM77.25,19H86v-.62H77.25Zm0,1.82H86v-.64H77.25Zm0,1.84H86V22H77.25Zm7.17-10.17H83.11a3.41,3.41,0,0,1-.5.58h1.81Zm3.64-2.07H82.92l1.31.23c-.1.21-.21.41-.31.6h4.14Z"/><path class="cls-1" d="M99.33,20.55a22.56,22.56,0,0,0-1.25-2.28v8.41H95.7V19.23a19.69,19.69,0,0,1-2.25,4.1A13.69,13.69,0,0,0,92.31,21a19.38,19.38,0,0,0,3.06-5.56H92.58V13.14H95.7V10.8c-.8.12-1.57.24-2.34.33a7.35,7.35,0,0,0-.66-1.91,31.15,31.15,0,0,0,6.67-1.7l1.39,2a18.85,18.85,0,0,1-2.68.77v2.84h2.74v2.29H98.08v.17c.61.58,2.3,2.53,2.7,3Zm10.21.89v5.22h-2.42V21.88L100.86,23l-.39-2.34,6.65-1.14V7.34h2.42V19.06l2-.35L112,21Zm-5.2-2.88a18.94,18.94,0,0,0-3.29-3.17l1.57-1.4a18.21,18.21,0,0,1,3.4,3Zm.54-5.47a15.55,15.55,0,0,0-3.09-3.1l1.62-1.41a16.51,16.51,0,0,1,3.19,3Z"/><path class="cls-1" d="M120.45,18.4c-.72.2-1.47.41-2.21.6V24c0,1.2-.23,1.78-.93,2.17a6.81,6.81,0,0,1-3.13.44,11.14,11.14,0,0,0-.71-2.24c.81,0,1.66,0,1.93,0s.39-.1.39-.41V19.66l-2,.5-.64-2.34c.77-.15,1.66-.36,2.65-.6V13.55h-2.38V11.27h2.38V7.34h2.45v3.93h2v2.28h-2v3.07l1.9-.48Zm11.48-2.8a15.17,15.17,0,0,1-3.85,6.88,14.08,14.08,0,0,0,4.78,2.09,10.65,10.65,0,0,0-1.57,2.13,14.76,14.76,0,0,1-5.16-2.61,19.08,19.08,0,0,1-5.45,2.55,10.47,10.47,0,0,0-1.32-2.24,15.69,15.69,0,0,0,5-2,16,16,0,0,1-2.94-4.93l.62-.18h-1.08V15H125V12.56h-4.45V10.28H125v-3h2.44v3h4.64v2.28h-4.64V15h2.49l.43-.1Zm-8.16,1.66a11.91,11.91,0,0,0,2.44,3.66,11.37,11.37,0,0,0,2.59-3.66Z"/><path class="cls-1" d="M152.68,16.76A13,13,0,0,1,149.24,23a15.28,15.28,0,0,0,4,1.54,9.76,9.76,0,0,0-1.57,2.13,14.28,14.28,0,0,1-4.45-2.07,17.7,17.7,0,0,1-4.52,2,8.55,8.55,0,0,0-1.22-2,1.79,1.79,0,0,1-.77,1.53,4.75,4.75,0,0,1-2.61.46,8.46,8.46,0,0,0-.62-2.3c.64,0,1.26,0,1.49,0s.31-.09.31-.33V19.76c-.56.36-1.07.71-1.59,1l-.6-1.49a25.9,25.9,0,0,1-1.29,7.39,9.36,9.36,0,0,0-2-1.12c1.08-2.83,1.14-7,1.14-10V8.06h6.53v6.19A3.92,3.92,0,0,0,144,10.3V8.08h7v4.54c0,.6.05.83.29.83h.81a4.49,4.49,0,0,0,1-.15c.06.6.1,1.41.18,2a4.24,4.24,0,0,1-1.18.12h-1.05c-2,0-2.36-.83-2.36-2.81V10.36h-2.43v0A5.82,5.82,0,0,1,143,16a10,10,0,0,0-1.43-1.53v9.47a3.54,3.54,0,0,1,0,.47,14.39,14.39,0,0,0,3.85-1.47,14.43,14.43,0,0,1-2.65-4l1-.31h-1.49v-2.3h8.43l.46-.1Zm-15.45-1.2c0,.85,0,1.82-.06,2.82.62-.21,1.34-.48,2.15-.79V15.33l-.83.66a17.55,17.55,0,0,0-1.26-1.57Zm0-5.28v2.57l.58-.42c.5.48,1.06,1,1.51,1.56V10.28Zm7.79,8.3a9.73,9.73,0,0,0,2.26,2.94,9.46,9.46,0,0,0,2.23-2.94Z"/><path class="cls-1" d="M161.28,8.14a39.58,39.58,0,0,1-2,4.31V26.64h-2.43V16.2c-.43.56-.87,1.06-1.3,1.53a14.22,14.22,0,0,0-1.33-2.56A21.82,21.82,0,0,0,159,7.4Zm9.11-.2a11.25,11.25,0,0,0,3.75,6.29,13.82,13.82,0,0,0-1.51,2.63,10.42,10.42,0,0,1-.81-.82c0,.22,0,.51,0,.68-.25,5.82-.48,8.08-1.08,8.82a2,2,0,0,1-1.49.87,10.75,10.75,0,0,1-2.32.09,6,6,0,0,0-.64-2.24,14.77,14.77,0,0,0,1.7.08.7.7,0,0,0,.64-.29c.33-.43.54-2,.72-6.05h-2.61c-.53,4.17-2,6.88-5,8.58a10.2,10.2,0,0,0-1.63-1.82c2.63-1.25,3.83-3.48,4.22-6.76h-1.9V15.87a11.68,11.68,0,0,1-.85.87,18.44,18.44,0,0,0-1.52-2.28,12.79,12.79,0,0,0,3.69-6.19l2.43.62a18.56,18.56,0,0,1-3.63,6.83h9a18.61,18.61,0,0,1-3-5.42h-1.85V7.94Z"/><path class="cls-1" d="M183.13,12.14a14,14,0,0,1-.83,1.64h9.63V24c0,1.22-.23,1.88-1.08,2.26a9.14,9.14,0,0,1-3.66.41,10.58,10.58,0,0,0-.75-2.38c1.06.06,2.26.06,2.61.06s.48-.12.48-.41V22.71h-7.79a7.2,7.2,0,0,1-2.3,4.12,8.42,8.42,0,0,0-1.78-1.89c1.78-1.55,1.93-3.77,1.93-5.69V17.57A17.33,17.33,0,0,1,177,19.83a14.86,14.86,0,0,0-1.62-1.91,15.69,15.69,0,0,0,5-5.78h-4.49V9.82h5.55c.33-.85.6-1.68.83-2.5l2.55.58c-.21.64-.44,1.28-.67,1.92h10.11v2.32Zm6.4,8.51V19.31h-7.44c0,.43,0,.87,0,1.34Zm0-4.7h-7.44v1.31h7.44Z"/><path class="cls-1" d="M203.9,9c-.54,1.74-1.22,3.83-1.78,5.43a6.73,6.73,0,0,1,1.49,4.31,3.18,3.18,0,0,1-.93,2.71,2.58,2.58,0,0,1-1.16.46,7.3,7.3,0,0,1-1.35,0,4.86,4.86,0,0,0-.54-2.11,7.2,7.2,0,0,0,.9,0,.86.86,0,0,0,.55-.17,1.56,1.56,0,0,0,.38-1.22A5.84,5.84,0,0,0,200,14.65c.39-1.27.85-2.94,1.18-4.31h-2v16.3H197V8.14H202l.34-.1Zm11.17,10.65c-.9.7-2,1.49-2.9,2.09a8.56,8.56,0,0,0,3.35,2.78,8.66,8.66,0,0,0-1.63,2.13c-3.09-1.7-4.75-4.89-5.72-8.95h-1.24v5.82l2.87-.64a15.39,15.39,0,0,0,.11,2.24c-4,1-4.81,1.34-5.3,1.65a8.13,8.13,0,0,0-1.06-1.92,2,2,0,0,0,.95-1.8V8.16h9.36v9.51h-3.58a14.68,14.68,0,0,0,.83,2.26,19.86,19.86,0,0,0,2.36-2.05Zm-8.14-9.34v1.61h4.55V10.28Zm0,5.26h4.55V13.88h-4.55Z"/><path class="cls-1" d="M225,8.68a31.37,31.37,0,0,1-6.18,9.07,24.54,24.54,0,0,0-2.19-2.11,21.61,21.61,0,0,0,5.61-7.85Zm5.8,9.51a65.54,65.54,0,0,1,4.59,7.15l-2.54,1.34c-.27-.6-.65-1.28-1.08-2-10,.79-11.41.91-12.43,1.29a21.2,21.2,0,0,0-1-2.63,5,5,0,0,0,2.07-1.66,37.44,37.44,0,0,0,5.09-7.85l2.88,1.2a46.18,46.18,0,0,1-5.59,7.81l7.6-.5c-.66-1-1.34-2.11-2-3Zm.39-10.36a13.35,13.35,0,0,0,5.32,7.38,12.75,12.75,0,0,0-1.86,2.48,18.29,18.29,0,0,1-5.37-7.31H226V7.83Z"/><path class="cls-1" d="M255.5,23.55c0,1.41-.25,2.16-1.14,2.59a9.35,9.35,0,0,1-4,.48,10.35,10.35,0,0,0-.81-2.67c1.16.08,2.53.06,2.92,0s.52-.1.52-.46V10.92H238.51V8.58h17Zm-4.6-9H238.72V12.39H250.9Zm-8.72,8.54v1.49h-2.41V16.08h10v7Zm0-4.89V21h5.22V18.19Z"/><path class="cls-2" d="M56.53,40.57h-2.4l-.52,1.9h-1.5l2.37-7.4h1.74l2.39,7.4H57.05Zm-.32-1.15L56,38.61c-.23-.77-.43-1.62-.65-2.42h0c-.19.81-.41,1.65-.63,2.42l-.22.81Z"/><path class="cls-2" d="M59.48,35.07h1.64l1.26,3.46c.16.46.3.95.45,1.43h.05c.16-.48.29-1,.45-1.43l1.23-3.46H66.2v7.4H64.85V39.38c0-.7.11-1.73.18-2.43h0l-.6,1.74L63.25,41.8H62.4l-1.15-3.11L60.66,37h0c.07.7.19,1.73.19,2.43v3.09H59.48Z"/><path class="cls-2" d="M68,35.07h2.43c1.65,0,2.91.57,2.91,2.32s-1.27,2.45-2.87,2.45h-1v2.63H68Zm2.37,3.6c1,0,1.52-.43,1.52-1.28s-.54-1.15-1.57-1.15H69.5v2.43Z"/><path class="cls-2" d="M74.7,35.07h1.48v6.16h3v1.24H74.7Z"/><path class="cls-2" d="M80.47,35.07H85V36.3H82V38h2.61v1.24H82v2h3.18v1.24H80.47Z"/><path class="cls-2" d="M88.1,36.3H86V35.07h5.66V36.3h-2.1v6.17H88.1Z"/><path class="cls-2" d="M92.88,35.07h4.55V36.3H94.36V38H97v1.24H94.36v2h3.18v1.24H92.88Z"/><path class="cls-2" d="M98.67,38.8c0-2.44,1.57-3.87,3.44-3.87a3,3,0,0,1,2.17,1l-.78.94a1.91,1.91,0,0,0-1.36-.62c-1.12,0-2,1-2,2.55s.76,2.58,1.93,2.58a2.06,2.06,0,0,0,1.53-.73l.78.92a3,3,0,0,1-2.36,1.09C100.19,42.61,98.67,41.27,98.67,38.8Z"/><path class="cls-2" d="M105.61,35.07h1.48V38h2.81V35.07h1.47v7.4H109.9v-3.2h-2.81v3.2h-1.48Z"/><path class="cls-2" d="M116.93,36.3h-2.08V35.07h5.66V36.3h-2.1v6.17h-1.48Z"/><path class="cls-2" d="M121.72,35.07h4.54V36.3H123.2V38h2.6v1.24h-2.6v2h3.17v1.24h-4.65Z"/><path class="cls-2" d="M127.5,38.8c0-2.44,1.57-3.87,3.44-3.87a3,3,0,0,1,2.17,1l-.78.94A1.91,1.91,0,0,0,131,36.2c-1.12,0-2,1-2,2.55s.76,2.58,1.93,2.58a2.06,2.06,0,0,0,1.53-.73l.78.92a3,3,0,0,1-2.36,1.09C129,42.61,127.5,41.27,127.5,38.8Z"/><path class="cls-2" d="M134.45,35.07h1.48V38h2.8V35.07h1.47v7.4h-1.47v-3.2h-2.8v3.2h-1.48Z"/><path class="cls-2" d="M142,35.07h1.51L145.68,39l.74,1.6h.05c-.08-.77-.19-1.75-.19-2.59v-3h1.4v7.4h-1.5l-2.14-4-.75-1.59h0c.07.8.18,1.73.18,2.58v3H142Z"/><path class="cls-2" d="M149.15,38.74c0-2.41,1.35-3.81,3.31-3.81s3.31,1.41,3.31,3.81-1.35,3.87-3.31,3.87S149.15,41.14,149.15,38.74Zm5.11,0c0-1.59-.7-2.54-1.8-2.54s-1.8.95-1.8,2.54.7,2.59,1.8,2.59S154.26,40.32,154.26,38.74Z"/><path class="cls-2" d="M157.22,35.07h1.48v6.16h3v1.24h-4.49Z"/><path class="cls-2" d="M162.25,38.74c0-2.41,1.35-3.81,3.31-3.81s3.31,1.41,3.31,3.81-1.35,3.87-3.31,3.87S162.25,41.14,162.25,38.74Zm5.11,0c0-1.59-.7-2.54-1.8-2.54s-1.8.95-1.8,2.54.7,2.59,1.8,2.59S167.36,40.32,167.36,38.74Z"/><path class="cls-2" d="M170,38.8a3.54,3.54,0,0,1,3.56-3.87,3.11,3.11,0,0,1,2.29,1l-.79.94a1.94,1.94,0,0,0-1.45-.62c-1.24,0-2.1,1-2.1,2.55s.74,2.58,2.2,2.58a1.49,1.49,0,0,0,.93-.28V39.59h-1.31V38.38h2.63v3.34a3.48,3.48,0,0,1-2.4.89C171.48,42.61,170,41.27,170,38.8Z"/><path class="cls-2" d="M178.75,39.76l-2.22-4.69h1.57l.74,1.8c.21.55.41,1.07.64,1.64h0c.23-.57.45-1.09.66-1.64l.74-1.8h1.54l-2.23,4.69v2.71h-1.48Z"/><path class="cls-2" d="M185.21,38.8c0-2.44,1.58-3.87,3.45-3.87a3,3,0,0,1,2.17,1l-.78.94a1.91,1.91,0,0,0-1.36-.62c-1.12,0-2,1-2,2.55s.76,2.58,1.93,2.58a2.06,2.06,0,0,0,1.53-.73l.78.92a3,3,0,0,1-2.36,1.09C186.74,42.61,185.21,41.27,185.21,38.8Z"/><path class="cls-2" d="M191.4,38.74c0-2.41,1.35-3.81,3.31-3.81S198,36.34,198,38.74s-1.35,3.87-3.31,3.87S191.4,41.14,191.4,38.74Zm5.11,0c0-1.59-.7-2.54-1.8-2.54s-1.8.95-1.8,2.54.7,2.59,1.8,2.59S196.51,40.32,196.51,38.74Z"/><path class="cls-2" d="M203.51,42.47,202,39.67h-1v2.8h-1.48v-7.4h2.58c1.55,0,2.78.54,2.78,2.24a2.12,2.12,0,0,1-1.41,2.13l1.73,3Zm-2.55-4h1c1,0,1.47-.4,1.47-1.19s-.52-1.07-1.47-1.07h-1Z"/><path class="cls-2" d="M206.3,35.07h2.43c1.64,0,2.9.57,2.9,2.32s-1.27,2.45-2.86,2.45h-1v2.63H206.3Zm2.37,3.6c1,0,1.51-.43,1.51-1.28s-.54-1.15-1.56-1.15h-.84v2.43Z"/><path class="cls-2" d="M212.61,38.74c0-2.41,1.35-3.81,3.31-3.81s3.31,1.41,3.31,3.81-1.35,3.87-3.31,3.87S212.61,41.14,212.61,38.74Zm5.11,0c0-1.59-.7-2.54-1.8-2.54s-1.8.95-1.8,2.54.7,2.59,1.8,2.59S217.72,40.32,217.72,38.74Z"/><path class="cls-2" d="M224.72,42.47l-1.53-2.8h-1v2.8h-1.48v-7.4h2.58c1.56,0,2.79.54,2.79,2.24a2.11,2.11,0,0,1-1.42,2.13l1.74,3Zm-2.56-4h1c.95,0,1.48-.4,1.48-1.19s-.53-1.07-1.48-1.07h-1Z"/><path class="cls-2" d="M230.9,40.57h-2.4l-.52,1.9h-1.5l2.37-7.4h1.74l2.38,7.4h-1.55Zm-.32-1.15-.22-.81c-.23-.77-.43-1.62-.65-2.42h0c-.19.81-.41,1.65-.63,2.42l-.22.81Z"/><path class="cls-2" d="M234.54,36.3h-2.08V35.07h5.67V36.3H236v6.17h-1.48Z"/><path class="cls-2" d="M239.33,35.07h1.48v7.4h-1.48Z"/><path class="cls-2" d="M242.26,38.74c0-2.41,1.35-3.81,3.31-3.81s3.31,1.41,3.31,3.81-1.35,3.87-3.31,3.87S242.26,41.14,242.26,38.74Zm5.11,0c0-1.59-.7-2.54-1.8-2.54s-1.8.95-1.8,2.54.7,2.59,1.8,2.59S247.37,40.32,247.37,38.74Z"/><path class="cls-2" d="M250.34,35.07h1.51L254,39l.74,1.6h0c-.08-.77-.19-1.75-.19-2.59v-3H256v7.4h-1.5l-2.14-4-.75-1.59h-.05c.07.8.18,1.73.18,2.58v3h-1.4Z"/></svg>